<?xml version="1.0" standalone="no"?>
<!DOCTYPE svg PUBLIC "-//W3C//DTD SVG 20010904//EN"
 "http://www.w3.org/TR/2001/REC-SVG-20010904/DTD/svg10.dtd">
<svg version="1.0" xmlns="http://www.w3.org/2000/svg"
 width="1831.000000pt" height="1831.000000pt" viewBox="0 0 1831.000000 1831.000000"
 preserveAspectRatio="xMidYMid meet">

<g transform="translate(0.000000,1831.000000) scale(0.100000,-0.100000)"
fill="#000000" stroke="none">
<path d="M10670 14103 c0 -22 48 -193 49 -176 1 16 -40 193 -45 193 -2 0 -4
-8 -4 -17z"/>
<path d="M10721 13894 c0 -11 3 -14 6 -6 3 7 2 16 -1 19 -3 4 -6 -2 -5 -13z"/>
<path d="M10731 13854 c0 -11 3 -14 6 -6 3 7 2 16 -1 19 -3 4 -6 -2 -5 -13z"/>
<path d="M10746 13795 c6 -51 92 -385 93 -365 1 9 -6 43 -15 75 -14 55 -27
111 -40 176 -2 14 -14 55 -24 90 -15 48 -18 54 -14 24z"/>
<path d="M10845 13375 c2 -22 16 -89 30 -150 70 -302 127 -549 169 -735 26
-113 62 -275 82 -360 19 -85 48 -216 64 -290 16 -74 44 -202 63 -285 19 -82
58 -256 87 -385 29 -129 68 -300 86 -380 19 -80 43 -188 54 -240 10 -52 32
-151 48 -220 16 -69 42 -181 56 -250 15 -69 38 -170 51 -225 13 -55 31 -136
40 -180 9 -44 34 -154 55 -245 21 -91 61 -271 90 -400 83 -376 137 -613 180
-790 21 -91 55 -244 75 -340 48 -241 79 -379 141 -635 29 -121 60 -256 69
-300 9 -44 33 -156 55 -250 21 -93 53 -235 70 -315 18 -80 36 -149 42 -155 7
-7 8 -4 5 10 -12 41 -26 101 -31 125 -2 14 -43 200 -91 413 -48 214 -85 391
-83 393 2 2 120 4 261 4 l257 1 9 37 c12 44 105 456 127 562 8 41 29 136 46
210 17 74 38 171 47 215 l17 80 2139 5 2140 5 3 2315 c2 1747 0 2328 -9 2370
-26 121 -102 231 -207 299 -103 66 143 61 -3182 61 -2398 0 -3019 3 -3032 13
-9 6 -19 21 -22 32 -3 11 -3 2 -1 -20z m2320 -835 l0 -135 -385 0 -385 0 -3
115 c-2 63 0 125 3 138 l5 22 383 -2 382 -3 0 -135z m1088 0 l0 -135 -381 -3
-382 -2 0 27 c-2 171 -2 239 -1 246 1 4 173 6 382 5 l382 -3 0 -135z m1087 0
l0 -140 -385 0 -385 0 0 133 c0 74 3 137 7 140 3 4 177 7 385 7 l378 0 0 -140z
m1070 0 l0 -140 -380 0 -380 0 0 140 0 140 380 0 380 0 0 -140z m143 -241 c21
-5 53 -24 72 -40 70 -62 66 40 63 -1509 -3 -1385 -3 -1395 -23 -1430 -12 -19
-40 -48 -64 -65 l-43 -30 -2122 0 -2122 0 -42 28 c-23 15 -51 45 -62 67 -19
37 -20 58 -20 443 l0 404 68 6 c255 24 491 202 583 440 38 100 49 159 49 267
0 357 -272 653 -642 696 l-58 7 0 295 0 295 25 42 c27 47 55 69 106 83 49 14
4182 15 4232 1z m-4171 -828 c218 -75 371 -245 422 -469 32 -141 15 -261 -56
-412 -97 -203 -338 -353 -550 -341 -17 1 -18 38 -18 627 l0 627 73 -6 c39 -4
98 -15 129 -26z m781 -2340 c4 -1 6 -61 5 -133 l-3 -133 -385 0 -385 0 0 130
0 130 365 5 c201 3 372 4 380 3 8 -1 19 -2 23 -2z m1093 -17 c-3 -9 -6 -69 -6
-135 l0 -119 -379 0 -380 0 -3 136 c-2 75 -2 136 -1 137 1 1 175 1 388 -1 346
-2 386 -4 381 -18z m1084 -119 l0 -135 -385 0 -385 0 0 134 0 135 28 3 c15 2
188 2 385 0 l357 -2 0 -135z m1071 131 c2 -2 3 -63 1 -135 l-3 -131 -380 0
-379 0 0 135 0 135 378 0 c208 0 381 -2 383 -4z"/>
<path d="M13250 10945 l0 -966 483 3 c529 4 512 2 652 69 120 57 216 164 256
285 25 74 26 246 3 324 -40 137 -161 253 -309 300 -58 18 -62 26 -18 40 187
61 315 240 315 441 0 131 -39 227 -126 314 -60 60 -126 99 -216 128 -61 20
-91 21 -552 25 l-488 3 0 -966z m764 613 c62 -19 112 -75 126 -142 23 -113
-20 -210 -114 -258 -33 -17 -65 -22 -163 -26 l-123 -5 -1 189 c-1 104 -2 204
-3 222 l-2 32 119 0 c66 0 138 -6 161 -12z m31 -775 c82 -43 115 -104 115
-210 0 -77 -21 -133 -66 -175 -50 -46 -90 -57 -225 -59 l-124 -1 -5 232 c-3
127 -3 234 0 237 3 3 64 3 135 1 109 -3 137 -7 170 -25z"/>
<path d="M14920 10945 l0 -965 240 0 240 0 2 243 c0 133 2 253 3 267 2 23 155
262 194 303 17 17 18 16 30 -25 18 -62 103 -331 181 -573 l67 -210 237 -3
c130 -1 236 -1 236 1 0 5 -147 466 -200 627 -21 63 -66 203 -100 310 -34 107
-74 231 -89 275 l-28 80 214 318 214 317 -241 -2 -242 -3 -114 -200 c-106
-185 -188 -328 -269 -465 -18 -30 -42 -75 -54 -98 -13 -24 -25 -41 -29 -37 -8
8 -8 -4 -10 443 l-2 362 -240 0 -240 0 0 -965z"/>
<path d="M12642 9644 c-53 -32 -82 -86 -82 -154 0 -146 151 -228 274 -150 116
74 112 238 -8 311 -47 29 -130 26 -184 -7z"/>
<path d="M2440 13336 c-118 -33 -228 -127 -283 -243 l-32 -68 -3 -2362 -2
-2363 707 0 708 0 224 -225 c123 -124 222 -228 219 -230 -3 -3 -754 -5 -1669
-5 -915 -1 -1680 -4 -1699 -9 l-35 -8 28 -12 c20 -8 236 -11 767 -11 l740 0 4
-23 c3 -12 7 -74 9 -137 3 -104 6 -122 33 -180 65 -138 199 -239 344 -260 40
-6 1859 -10 4653 -10 3936 0 4587 2 4587 14 0 8 -11 61 -24 118 -14 56 -34
146 -45 198 -10 52 -31 145 -45 205 -14 61 -39 175 -56 255 -33 156 -91 416
-145 650 -18 80 -41 183 -50 230 -10 47 -30 137 -45 200 -16 63 -36 153 -45
200 -9 47 -27 126 -40 175 -13 50 -35 149 -49 220 -15 72 -38 175 -51 230 -26
105 -97 418 -144 640 -28 129 -82 367 -146 645 -18 80 -36 161 -40 180 -4 19
-26 121 -50 225 -24 105 -61 270 -82 368 -21 97 -40 177 -44 177 -3 0 -17 -55
-32 -122 -14 -68 -60 -274 -102 -458 -42 -184 -84 -373 -94 -420 -19 -86 -68
-306 -141 -630 -22 -96 -63 -276 -90 -400 -71 -318 -147 -657 -175 -780 -13
-58 -38 -168 -55 -245 -17 -77 -46 -205 -65 -285 -18 -80 -37 -163 -41 -185
-3 -22 -17 -85 -30 -140 -14 -55 -29 -129 -34 -165 -9 -66 -47 -249 -78 -375
l-17 -70 -785 -3 -785 -2 -227 227 -228 228 817 5 818 5 12 55 c7 30 25 107
38 170 29 131 109 483 160 705 19 83 43 193 55 245 11 52 29 136 40 185 12 50
39 169 60 265 65 293 89 399 121 540 17 74 44 194 59 265 35 161 88 397 140
620 21 94 50 222 64 285 14 63 55 246 91 405 36 160 79 351 95 425 16 74 38
176 50 225 20 83 53 232 116 523 13 61 24 117 24 122 0 16 -7922 12 -7980 -4z
m635 -962 c126 -146 240 -276 253 -289 23 -25 24 -25 197 -25 l175 0 0 -33 c0
-22 8 -41 23 -54 37 -35 61 -37 96 -7 31 26 31 26 31 129 0 88 -3 106 -20 128
-27 34 -53 41 -88 23 -34 -17 -42 -34 -42 -82 l0 -34 -166 0 -166 0 -41 47
c-23 26 -78 88 -122 138 -162 182 -275 313 -275 319 0 3 569 6 1265 6 l1265 0
0 -110 0 -110 -154 0 -155 0 -53 -56 c-29 -30 -58 -68 -63 -84 -6 -16 -18 -37
-28 -48 -14 -15 -17 -39 -17 -134 0 -129 9 -148 70 -150 59 -2 80 46 77 172
-2 64 -6 84 -25 110 l-23 30 36 44 c20 24 42 47 49 49 8 3 74 4 147 2 l134 -4
3 -56 3 -55 -60 0 c-33 0 -63 5 -66 10 -10 17 -32 11 -64 -16 l-31 -26 0 -107
c0 -104 1 -108 28 -134 34 -32 51 -34 85 -7 25 20 26 27 29 118 l3 97 38 3 37
3 0 -255 0 -256 -660 0 -660 0 0 -220 0 -220 -192 0 -192 0 -38 37 c-43 42
-46 55 -18 90 17 22 20 41 20 126 0 96 -1 102 -27 129 -33 34 -62 36 -97 3
-25 -23 -26 -28 -26 -135 0 -103 2 -112 23 -133 13 -12 27 -33 30 -47 4 -14
31 -51 61 -83 l54 -57 397 0 c452 1 400 11 486 -96 43 -54 49 -68 49 -108 0
-25 -5 -46 -11 -46 -5 0 -17 -17 -25 -37 -13 -30 -14 -44 -5 -75 13 -43 35
-58 85 -58 27 0 39 6 56 30 l22 31 126 -3 127 -3 3 -282 2 -283 -455 0 -455 0
2 -232 3 -233 655 -5 655 -5 0 -25 0 -25 -447 -3 -447 -2 -83 -93 c-46 -51
-112 -126 -148 -167 -36 -40 -70 -78 -75 -84 -6 -6 -44 -49 -85 -96 -41 -47
-79 -88 -85 -92 -5 -4 -87 -8 -182 -8 l-172 0 -98 -105 -98 -105 -167 0 -166
0 -45 51 c-25 29 -43 58 -40 65 9 24 -7 84 -28 105 -19 19 -62 25 -94 13 -23
-9 -45 -58 -45 -101 0 -29 -8 -47 -32 -75 -18 -20 -67 -75 -108 -122 l-75 -86
-57 0 -58 0 0 91 0 91 80 88 80 88 0 396 c0 250 4 396 10 396 15 0 40 56 40
89 0 17 -11 42 -26 60 -34 41 -75 42 -115 2 -41 -42 -41 -101 1 -143 l30 -30
0 -374 0 -374 -41 -45 c-23 -25 -45 -45 -50 -45 -5 0 -9 437 -9 1000 0 550 4
1000 9 1000 4 0 19 -13 32 -29 13 -15 57 -64 98 -107 l74 -79 597 -5 597 -5
27 -32 c27 -32 30 -33 105 -33 74 0 78 -1 99 -30 18 -24 30 -30 61 -30 52 0
86 36 86 92 0 81 -97 119 -148 58 -23 -27 -31 -30 -86 -30 -61 0 -64 2 -108
54 l-23 26 -594 0 -593 0 -85 93 c-47 50 -99 108 -116 128 l-32 37 0 127 c0
97 3 126 13 123 6 -3 81 -83 165 -179 85 -96 169 -191 188 -211 l35 -38 694 0
693 0 36 -42 36 -42 0 -143 0 -143 -248 0 -248 0 -10 43 -9 42 -59 3 c-41 2
-62 -1 -67 -10 -5 -7 -9 -61 -9 -120 0 -97 2 -109 22 -127 32 -30 56 -35 84
-16 27 17 44 52 44 90 l0 25 278 2 277 3 2 190 2 190 -55 60 -56 60 -698 5
-699 5 -62 70 c-33 39 -86 99 -118 135 -54 62 -82 94 -184 206 l-47 51 0 277
c0 152 3 276 7 276 3 0 14 -7 24 -16 15 -14 17 -27 12 -79 -5 -59 -4 -65 20
-89 29 -29 81 -35 111 -13 20 15 38 83 30 112 -10 31 -45 65 -69 65 -14 0 -42
23 -78 64 l-57 65 0 210 0 211 113 -1 112 -1 230 -264z m3139 222 l36 -43 0
-520 0 -520 -25 -23 c-31 -29 -41 -80 -25 -121 15 -36 37 -49 84 -49 72 0 104
105 51 168 l-25 30 0 530 c0 514 -1 530 -20 555 -11 14 -20 28 -20 31 0 3 38
6 85 6 l85 0 0 -62 c0 -54 -4 -66 -25 -87 -36 -33 -35 -98 1 -135 36 -35 77
-34 115 3 41 42 40 91 -3 134 -27 27 -32 41 -35 90 l-4 57 216 0 c210 0 215 0
205 -19 -18 -34 -11 -78 16 -110 21 -25 34 -31 65 -31 31 0 43 6 61 30 20 28
26 30 84 30 l62 0 65 -72 c129 -146 353 -403 410 -471 l57 -70 0 -153 c0 -152
0 -154 -25 -176 -50 -43 -41 -134 16 -163 40 -21 54 -19 92 15 19 17 43 30 54
30 11 0 28 9 38 20 24 27 61 25 97 -5 26 -22 39 -25 110 -25 75 0 81 2 109 29
16 16 29 38 29 48 -1 68 -38 93 -143 93 -66 0 -79 -3 -105 -25 -17 -14 -43
-25 -59 -25 -17 0 -38 -9 -48 -20 -26 -28 -40 -25 -80 18 l-34 37 -1 170 0
170 -33 39 c-17 22 -117 137 -222 256 -104 119 -214 244 -244 278 l-54 62 -79
0 c-43 0 -78 2 -78 4 0 2 -3 11 -6 20 -5 14 14 16 178 16 l185 0 -5 -53 c-4
-46 -1 -57 22 -84 14 -17 26 -36 26 -43 0 -8 265 -319 300 -350 3 -3 39 -43
80 -90 41 -47 85 -96 97 -110 14 -15 23 -38 23 -58 0 -24 9 -42 29 -63 28 -27
34 -29 111 -29 77 0 83 2 111 29 38 38 38 74 -1 113 -29 29 -32 30 -115 27
-99 -4 -85 -13 -224 146 -53 61 -154 174 -224 253 l-128 143 30 35 c32 36 40
79 21 115 -10 17 -7 19 35 19 l45 0 0 -69 c0 -79 -3 -75 197 -303 56 -65 109
-133 117 -152 22 -53 49 -66 139 -66 73 0 80 2 108 29 38 39 38 74 -2 113
l-30 31 -100 -5 -101 -5 -96 109 c-54 61 -114 128 -134 151 -35 39 -37 47 -38
105 l0 62 39 0 c60 0 71 -7 71 -49 0 -33 11 -50 90 -138 49 -55 97 -103 105
-107 9 -3 50 -6 92 -6 69 0 77 2 104 29 38 38 38 74 0 112 -27 27 -35 29 -106
29 -55 0 -85 -5 -106 -17 l-29 -17 -45 49 c-31 35 -44 57 -42 75 2 22 6 25 37
22 106 -10 364 -75 426 -107 16 -8 34 -15 41 -15 57 0 442 -237 443 -272 0 -5
-9 -8 -21 -8 -29 0 -79 -53 -79 -83 0 -14 13 -39 29 -56 28 -29 33 -31 105
-31 41 0 87 6 102 12 24 11 28 10 42 -10 8 -12 27 -37 43 -55 16 -17 29 -36
29 -40 0 -15 -52 -77 -66 -77 -7 0 -17 6 -21 14 -15 26 -52 36 -129 36 l-76 0
-42 -44 c-50 -53 -138 -154 -148 -170 -4 -6 -8 -536 -8 -1177 l0 -1166 22 -29
c13 -16 38 -46 58 -67 19 -21 50 -55 69 -75 l33 -37 -35 -30 c-81 -70 -386
-221 -486 -241 -32 -7 -33 -6 -21 16 6 12 9 36 6 54 -9 48 -48 66 -139 66 -66
0 -79 -3 -105 -25 -26 -21 -40 -25 -99 -25 l-69 0 -48 55 -47 55 -143 0 -143
0 -44 48 c-24 26 -77 85 -118 130 l-73 82 -70 0 c-60 0 -74 4 -100 25 -43 36
-89 34 -122 -6 -20 -24 -26 -41 -24 -70 2 -43 3 -42 -124 -175 l-78 -82 0
-121 0 -121 -32 -1 c-18 0 -49 -1 -68 -2 l-35 -2 0 275 0 275 123 3 123 3 42
54 42 55 138 0 c100 0 145 4 165 14 15 8 56 49 92 92 36 42 79 91 95 108 74
77 75 80 75 243 0 125 3 152 18 173 13 19 17 44 17 103 -1 85 -1 84 77 78 15
-1 48 5 73 13 90 31 85 40 85 -162 l0 -179 72 -81 c71 -82 71 -82 121 -82 38
0 56 -6 79 -25 26 -22 39 -25 110 -25 75 0 81 2 109 29 16 16 29 38 29 48 -1
68 -38 93 -143 93 -66 0 -79 -3 -106 -26 -24 -20 -39 -25 -73 -22 -38 3 -47 9
-95 66 l-53 62 0 174 0 174 35 26 c82 63 123 131 140 232 11 67 12 68 46 40
27 -23 39 -26 111 -26 75 0 81 2 109 29 42 43 38 96 -11 124 -44 26 -169 24
-204 -4 -15 -12 -28 -20 -30 -18 -1 2 -8 38 -14 79 -6 41 -14 87 -18 103 -6
26 -5 27 37 27 34 0 50 -6 68 -25 34 -37 64 -41 105 -15 78 47 48 174 -41 174
-27 0 -42 -7 -64 -32 -26 -29 -34 -32 -90 -32 -59 0 -63 2 -113 48 -77 70
-149 93 -308 99 l-128 6 0 -434 c0 -416 -1 -435 -20 -464 -28 -42 -28 -133 0
-168 18 -22 20 -40 20 -164 l-1 -138 -120 -132 -121 -133 -143 0 -143 0 -52
-60 -52 -60 -136 0 -137 0 3 -305 3 -305 -263 -1 c-266 -2 -303 -2 -325 0 -9
1 -13 19 -13 56 l0 55 79 0 79 0 121 143 121 142 0 627 0 627 22 15 c16 12 22
28 26 70 4 48 1 57 -21 80 -36 36 -80 35 -118 -3 -20 -20 -29 -40 -29 -61 0
-37 23 -85 45 -93 13 -6 15 -77 15 -623 l0 -616 -77 -91 c-135 -161 -117 -147
-195 -147 l-68 0 -2 1048 c-2 576 -3 1048 -3 1048 0 1 166 3 369 5 l370 4 8
-32 c5 -18 18 -39 30 -48 48 -33 111 -9 126 48 l8 32 85 0 c78 0 84 -1 87 -21
8 -56 85 -72 109 -24 18 36 16 135 -3 165 -28 42 -95 24 -108 -30 -6 -24 -9
-25 -91 -25 -66 0 -93 5 -122 20 -21 11 -43 20 -49 20 -6 0 -23 -9 -37 -20
-24 -19 -40 -20 -401 -20 l-376 0 0 745 0 745 134 0 135 0 35 -44z m2954 -746
c18 -32 20 -40 7 -40 -8 0 -52 -43 -97 -95 -60 -69 -87 -93 -98 -88 -8 4 -52
9 -98 11 -80 3 -83 3 -112 -26 -38 -38 -38 -71 -1 -111 28 -30 33 -31 108 -31
88 0 117 13 137 62 7 16 46 70 87 119 63 76 78 89 104 89 26 0 34 -7 52 -42
69 -137 162 -375 182 -468 43 -198 59 -607 32 -813 -23 -180 -101 -453 -160
-561 -16 -28 -37 -73 -47 -101 -26 -74 -128 -234 -217 -341 l-77 -94 -83 0
c-61 0 -89 -4 -106 -17 -23 -16 -25 -15 -72 35 l-49 51 0 1149 0 1150 33 40
c46 57 63 66 90 47 15 -10 45 -15 98 -15 68 0 81 3 107 25 17 14 36 25 44 25
8 0 32 18 53 40 21 22 44 40 50 40 5 0 20 -18 33 -40z m-4120 -817 l2 -173
-125 0 -126 0 -34 35 c-31 30 -35 41 -35 85 0 44 -5 56 -38 93 -62 69 -102
124 -95 131 4 3 106 5 227 4 l221 -3 3 -172z m410 -1711 l2 -313 -47 -50 c-44
-47 -49 -49 -99 -49 -49 0 -55 3 -88 42 -20 23 -36 49 -36 57 -1 9 -1 58 -1
109 l0 93 -61 69 -60 70 -313 0 -312 0 -44 -47 c-24 -27 -64 -72 -89 -102 -72
-86 -141 -165 -158 -178 -11 -9 -53 -13 -127 -13 l-111 0 -70 -78 c-38 -42
-79 -90 -91 -105 l-21 -28 -453 1 c-249 0 -454 2 -456 4 -2 2 35 46 83 100 83
92 88 96 127 96 38 0 46 -5 97 -60 l56 -60 183 0 183 0 74 78 c40 43 83 91 94
105 l21 27 169 0 c93 0 175 3 184 6 8 3 118 121 242 262 125 142 234 263 243
270 12 9 111 12 446 10 l430 -3 3 -313z m-373 -87 l45 -46 0 -112 0 -112 60
-62 59 -63 65 0 c60 0 69 3 97 30 18 16 35 27 40 24 5 -3 9 -23 9 -44 0 -41
-16 -57 -55 -54 -11 1 -102 2 -202 3 l-183 1 0 98 c0 83 3 99 18 108 10 7 24
30 31 52 15 44 5 87 -26 118 -17 16 -66 18 -93 4 -42 -23 -45 -126 -5 -170 13
-14 15 -38 13 -116 l-3 -99 -250 3 -250 3 -3 86 -3 86 43 44 c52 53 84 57 116
13 18 -24 30 -30 61 -30 54 0 86 36 85 96 -2 86 -85 127 -139 68 -14 -15 -25
-31 -25 -35 0 -5 -20 -9 -44 -9 -42 0 -48 -4 -98 -60 l-53 -60 -5 -101 -5
-100 -280 -1 c-192 -1 -280 2 -280 10 0 6 26 40 58 76 l58 66 114 0 c81 0 117
4 127 13 7 8 51 58 98 112 47 54 107 123 134 152 l49 53 288 0 288 0 46 -45z
m2132 28 c11 -10 62 -66 113 -125 l94 -108 143 0 144 0 26 -27 c14 -16 37 -43
50 -60 25 -32 27 -33 105 -33 71 0 84 -3 110 -25 19 -16 42 -25 64 -25 46 0
43 -16 -3 -24 -205 -35 -407 -41 -1295 -36 -16 0 -18 11 -18 100 l0 101 93
102 c73 79 100 103 123 105 56 5 69 11 87 42 17 28 22 30 81 30 47 0 69 -5 83
-17z m-1495 -993 c76 -51 110 -154 90 -269 -21 -119 -78 -171 -197 -179 -123
-8 -189 29 -224 124 -49 131 -12 276 84 332 35 20 50 22 127 19 70 -2 92 -7
120 -27z m1394 11 c81 -37 121 -126 112 -249 -11 -152 -92 -221 -248 -210 -80
6 -118 25 -154 76 -83 120 -45 332 69 383 55 25 166 25 221 0z m-2836 -221 l0
-230 -75 0 -75 0 0 135 0 134 -57 3 -58 3 -3 46 -3 46 54 12 c54 12 78 29 90
64 5 14 18 17 67 17 l60 0 0 -230z m470 0 l0 -230 -75 0 -75 0 0 135 0 135
-60 0 -60 0 0 50 c0 35 4 50 13 50 7 0 36 7 64 15 40 12 53 21 63 45 12 29 15
30 71 30 l59 0 0 -230z m470 0 l0 -230 -75 0 -75 0 0 135 0 135 -55 0 c-49 0
-55 2 -61 24 -13 52 -2 70 50 83 52 13 82 34 91 64 5 16 17 19 66 19 l59 0 0
-230z m945 75 c3 -82 2 -185 -2 -227 l-6 -78 -73 0 -74 0 0 135 0 135 -55 0
-55 0 0 49 c0 48 1 49 36 56 56 10 83 26 96 57 12 28 16 29 71 26 l59 -3 3
-150z m472 -72 l-2 -228 -77 -3 -78 -3 0 136 0 135 -55 0 -55 0 0 49 0 49 57
13 c48 12 59 19 72 46 15 31 18 33 78 33 l61 0 -1 -227z m943 -3 l0 -230 -75
0 c-53 0 -75 4 -76 13 0 6 0 55 1 107 2 141 -1 148 -63 152 l-52 3 -3 47 -3
47 38 7 c56 10 92 31 99 59 6 23 10 25 70 25 l64 0 0 -230z"/>
<path d="M3424 12480 c-60 -24 -73 -112 -25 -161 16 -16 36 -29 45 -29 27 0
65 22 71 42 6 17 24 18 339 18 l333 0 36 -42 c20 -23 37 -45 37 -49 0 -3 -9
-14 -20 -24 -18 -16 -20 -31 -20 -137 l0 -118 33 -20 c40 -25 39 -25 76 6 l31
26 0 108 c0 92 -3 111 -20 133 -11 14 -20 33 -20 42 0 9 -28 46 -62 81 l-61
64 -330 0 -331 0 -25 29 c-30 34 -57 43 -87 31z"/>
<path d="M3986 12239 c-25 -20 -26 -24 -26 -129 0 -60 3 -116 6 -125 10 -26
61 -47 83 -35 46 24 61 59 61 142 0 86 -17 140 -48 157 -30 16 -46 14 -76 -10z"/>
<path d="M3858 11619 c-28 -20 -28 -22 -28 -134 0 -119 4 -130 50 -155 25 -14
62 2 84 35 15 22 17 44 14 125 -3 88 -6 101 -27 124 -29 31 -56 32 -93 5z"/>
<path d="M2713 10490 c-32 -13 -55 -54 -55 -97 0 -48 46 -93 95 -93 25 0 42
-9 72 -40 33 -34 45 -40 80 -40 33 0 46 -6 67 -30 20 -23 35 -30 62 -30 54 0
76 27 76 94 0 47 -4 57 -26 75 -41 32 -78 27 -111 -14 -36 -46 -76 -47 -117
-4 -24 24 -29 37 -28 69 3 49 -21 98 -54 110 -29 12 -32 12 -61 0z"/>
<path d="M4199 10471 c-24 -25 -29 -38 -29 -78 0 -27 -5 -54 -12 -61 -8 -8
-59 -12 -165 -12 l-153 0 0 -353 c0 -346 0 -354 -21 -378 -12 -13 -37 -43 -56
-66 -31 -38 -40 -43 -77 -43 -51 0 -84 -29 -93 -83 -14 -90 86 -146 145 -81
16 19 22 37 22 73 0 38 5 52 26 72 14 13 44 46 66 72 l41 48 -2 322 c-1 177 2
327 6 333 5 8 56 13 140 15 120 4 134 6 155 27 14 13 37 22 55 22 65 0 106 66
83 135 -22 68 -82 84 -131 36z"/>
<path d="M3294 10314 c-45 -47 -45 -80 1 -130 22 -24 35 -48 35 -66 0 -20 19
-49 71 -108 l71 -80 57 0 c51 0 61 -3 84 -30 35 -39 92 -42 125 -7 34 36 31
105 -6 140 -39 37 -73 35 -116 -8 -28 -28 -43 -35 -73 -35 -21 0 -42 4 -48 8
-28 20 -115 123 -115 135 0 8 9 25 21 38 46 53 47 123 2 159 -38 30 -71 25
-109 -16z"/>
<path d="M6935 11987 c-30 -30 -36 -42 -34 -75 3 -45 -8 -60 -121 -177 -37
-38 -75 -87 -83 -107 -9 -21 -20 -38 -25 -38 -5 0 -15 -14 -22 -31 -19 -46 0
-101 45 -125 34 -18 36 -18 69 0 68 37 74 117 12 167 -20 16 -19 18 73 118 87
94 96 101 131 101 108 0 123 171 18 196 -23 5 -34 0 -63 -29z"/>
<path d="M7474 12010 c-55 -22 -71 -108 -29 -158 25 -29 25 -33 25 -204 0
-152 2 -177 18 -195 9 -11 57 -65 106 -121 l89 -102 145 0 c139 0 145 -1 174
-25 26 -22 39 -25 107 -25 103 0 131 19 131 89 0 64 -28 81 -133 81 -66 0 -79
-3 -105 -25 -29 -24 -36 -25 -164 -25 l-135 0 -50 58 c-28 31 -67 75 -87 96
l-36 40 -1 140 c0 78 -2 149 -4 159 -2 10 9 33 25 51 16 17 32 44 35 58 9 35
-19 92 -51 107 -29 13 -32 13 -60 1z"/>
<path d="M7201 11204 c-25 -32 -28 -115 -6 -158 11 -21 15 -62 15 -152 l0
-123 -67 -80 -68 -80 -127 0 c-112 -1 -128 1 -140 18 -7 10 -28 26 -47 35 -32
17 -35 17 -67 0 -68 -37 -67 -141 2 -170 38 -16 70 -8 104 26 20 20 33 22 148
22 70 1 135 4 144 7 9 3 30 22 45 42 15 20 52 64 81 98 l52 62 0 131 c0 110 3
135 17 150 11 13 19 41 21 83 4 58 2 66 -21 89 -33 33 -60 33 -86 0z"/>
<path d="M7999 10451 c-16 -17 -29 -40 -29 -54 0 -38 45 -85 83 -89 32 -3 32
-3 32 -58 0 -54 0 -54 -35 -61 -40 -9 -80 -50 -80 -84 0 -12 13 -37 29 -54 28
-30 32 -31 111 -31 77 0 83 2 111 29 16 17 29 40 29 54 0 34 -35 75 -73 85
-31 8 -32 10 -32 63 0 50 2 54 25 57 44 6 70 40 70 92 0 63 -29 80 -135 80
-71 0 -79 -2 -106 -29z"/>
<path d="M7007 10272 c-26 -28 -24 -162 2 -186 27 -25 72 -17 88 14 16 32 16
128 0 160 -16 32 -66 39 -90 12z"/>
<path d="M7205 10270 c-26 -29 -32 -119 -11 -161 12 -24 16 -62 16 -157 l0
-125 -62 -71 c-35 -39 -67 -74 -73 -78 -5 -4 -66 -8 -134 -8 l-125 0 -25 31
c-45 53 -112 39 -141 -32 -15 -36 -6 -74 25 -105 36 -36 80 -32 119 11 l32 35
136 0 136 0 73 81 c41 45 79 89 86 98 8 11 12 60 13 150 0 114 3 137 18 154
25 28 24 147 -2 176 -24 27 -58 27 -81 1z"/>
<path d="M8030 9603 c-65 -26 -80 -95 -29 -137 27 -23 39 -26 111 -26 75 0 81
2 109 29 35 36 37 70 5 108 -22 26 -30 28 -103 30 -43 1 -85 0 -93 -4z"/>
<path d="M7440 9373 c-18 -23 -21 -37 -17 -77 8 -90 82 -116 141 -51 31 34 35
35 104 35 70 0 72 -1 108 -40 l37 -40 80 0 c70 0 83 -3 109 -25 26 -22 39 -25
110 -25 75 0 81 2 109 29 16 16 29 38 29 48 -1 68 -38 93 -143 93 -66 0 -79
-3 -105 -25 -26 -21 -40 -25 -99 -25 -67 0 -70 1 -108 40 l-39 40 -86 0 c-79
0 -88 2 -110 25 -34 36 -91 35 -120 -2z"/>
<path d="M9199 10777 c-31 -24 -51 -66 -48 -102 4 -37 -10 -57 -114 -172 -34
-37 -42 -41 -63 -32 -14 5 -59 9 -100 9 -71 0 -77 -2 -106 -30 -25 -26 -29
-36 -24 -63 3 -18 17 -42 32 -54 22 -20 36 -23 108 -23 77 0 84 2 108 28 14
15 28 35 30 44 1 9 41 60 88 112 74 84 88 96 117 96 46 0 83 35 90 86 5 36 1
45 -27 77 -33 38 -63 46 -91 24z"/>
<path d="M8769 9871 c-37 -37 -37 -70 0 -110 28 -30 32 -31 111 -31 77 0 83 2
111 29 28 29 36 61 23 96 -12 29 -60 45 -139 45 -71 0 -79 -2 -106 -29z"/>
<path d="M5550 8168 c-16 -18 -20 -35 -20 -99 0 -93 11 -126 44 -135 58 -14
93 52 83 154 -10 94 -59 131 -107 80z"/>
<path d="M6964 8169 c-16 -17 -19 -37 -19 -109 0 -96 16 -130 60 -130 44 0 60
34 60 130 0 72 -3 92 -19 109 -24 27 -58 27 -82 0z"/>
<path d="M17921 8050 l-209 -211 -2159 -2 -2158 -2 -13 -50 c-17 -67 -117
-508 -152 -671 -16 -72 -36 -158 -44 -190 -8 -33 -35 -149 -60 -259 -25 -110
-68 -299 -96 -420 -28 -121 -73 -317 -100 -435 -27 -118 -67 -294 -89 -390
-22 -96 -62 -272 -89 -390 -89 -386 -113 -493 -148 -640 -19 -79 -42 -178 -50
-220 -8 -41 -22 -105 -30 -141 -9 -36 -14 -75 -12 -85 4 -18 5 -17 16 3 7 12
18 50 26 85 7 35 30 133 50 218 43 182 101 438 121 530 11 55 53 236 119 525
8 33 23 98 35 145 37 153 62 265 66 290 2 14 15 75 30 135 53 221 117 497 140
600 8 39 37 165 63 280 27 116 57 246 66 290 10 44 22 95 27 112 l10 33 1832
2 1832 3 78 37 c141 67 236 183 266 326 6 29 11 96 11 147 l0 95 189 0 c104 0
202 3 220 6 23 5 83 59 238 215 115 114 208 213 208 220 0 37 -43 1 -234 -191z"/>
<path d="M17287 7105 c-23 -80 -32 -99 -72 -154 -53 -73 -133 -134 -211 -164
l-59 -22 -1772 -3 -1771 -2 -36 -148 c-19 -81 -46 -199 -60 -262 -14 -63 -34
-151 -45 -195 -12 -44 -21 -90 -21 -102 l0 -23 1808 0 c1125 0 1830 4 1867 10
93 15 193 70 259 141 119 128 127 168 124 611 -2 207 -6 331 -11 313z"/>
<path d="M7765 6762 c-105 -50 -155 -146 -163 -311 -6 -121 7 -192 50 -271 70
-132 224 -175 368 -103 106 53 155 166 154 348 -1 158 -42 256 -132 319 -39
28 -51 31 -140 34 -79 2 -104 -1 -137 -16z m179 -135 c19 -26 21 -44 24 -190
2 -100 -1 -176 -8 -200 -14 -47 -48 -71 -90 -62 -52 11 -63 41 -68 183 -6 158
9 260 39 285 32 26 77 18 103 -16z"/>
<path d="M10144 6761 c-91 -41 -151 -155 -161 -303 -13 -192 54 -343 174 -393
138 -58 305 3 361 132 70 163 46 410 -51 511 -51 54 -99 72 -197 72 -61 0 -96
-6 -126 -19z m171 -118 c31 -30 37 -67 36 -232 -1 -178 -7 -205 -53 -231 -25
-13 -31 -13 -55 0 -48 27 -57 60 -57 220 -1 163 5 207 35 238 24 26 71 29 94
5z"/>
<path d="M2165 6757 c-3 -6 -4 -167 -3 -357 l3 -345 230 0 230 0 0 70 0 70
-137 3 -138 3 0 79 0 79 93 3 92 3 0 60 0 60 -92 3 -93 3 0 74 0 75 140 0 140
0 0 65 0 65 -230 0 c-176 0 -232 -3 -235 -13z"/>
<path d="M2745 6759 c-3 -8 -4 -169 -3 -359 l3 -345 155 0 c152 0 156 1 215
30 42 21 71 45 97 80 56 74 72 131 72 255 0 94 -3 112 -28 168 -33 70 -85 124
-155 155 -39 18 -71 22 -198 25 -123 3 -154 1 -158 -9z m266 -136 c52 -31 69
-84 69 -213 0 -95 -3 -121 -21 -157 -22 -46 -61 -73 -104 -73 l-25 0 0 230 0
230 26 0 c14 0 39 -8 55 -17z"/>
<path d="M3436 6493 c-38 -153 -77 -309 -87 -348 -27 -101 -30 -96 58 -93 l76
3 16 70 16 70 79 3 c44 2 83 -1 89 -7 5 -5 15 -38 21 -73 l11 -63 93 -3 c83
-2 92 -1 92 15 0 19 -47 241 -104 493 -19 85 -36 166 -38 180 l-3 25 -126 3
-125 3 -68 -278z m203 -23 c31 -155 32 -150 -35 -150 l-57 0 7 43 c14 88 50
227 56 220 4 -5 17 -55 29 -113z"/>
<path d="M4275 6757 c-3 -6 -4 -167 -3 -357 l3 -345 174 -3 c197 -3 246 7 308
61 86 75 85 199 -1 275 -20 17 -43 32 -51 32 -25 0 -17 19 14 35 17 8 42 31
58 51 23 31 28 47 28 95 0 56 -3 61 -44 103 -57 58 -94 66 -312 66 -127 0
-171 -3 -174 -13z m320 -142 c14 -13 25 -36 25 -50 0 -14 -11 -37 -25 -50 -20
-21 -34 -25 -80 -25 l-55 0 0 75 0 75 55 0 c46 0 60 -4 80 -25z m-8 -260 c33
-23 49 -85 32 -121 -18 -37 -53 -54 -111 -54 l-48 0 0 95 0 95 53 0 c31 0 61
-6 74 -15z"/>
<path d="M4920 6410 l0 -360 89 0 c72 0 90 3 95 16 3 9 6 55 6 102 0 81 2 90
33 134 17 27 35 48 39 48 3 0 28 -66 55 -147 l50 -148 78 -3 c43 -2 84 -1 91
2 10 4 -7 66 -67 241 -43 130 -76 242 -72 248 3 7 39 58 80 114 40 56 73 105
73 108 0 3 -41 4 -91 3 l-92 -3 -58 -95 c-33 -52 -71 -117 -86 -144 l-28 -50
-5 145 -5 144 -92 3 -93 3 0 -361z"/>
<path d="M5860 6410 l0 -360 220 0 220 0 0 65 0 65 -125 0 -125 0 -2 293 -3
292 -92 3 -93 3 0 -361z"/>
<path d="M6526 6758 c-3 -7 -11 -42 -20 -78 -8 -36 -44 -184 -81 -330 -36
-145 -65 -272 -65 -282 0 -16 10 -18 74 -18 l73 0 19 73 19 72 85 0 85 0 15
-70 15 -70 93 -3 c106 -3 102 -8 77 93 -8 33 -33 143 -55 245 -22 102 -51 228
-63 280 l-22 95 -123 3 c-93 2 -123 0 -126 -10z m140 -301 c12 -67 20 -125 17
-129 -6 -11 -113 -10 -113 1 0 10 47 214 56 244 10 33 19 8 40 -116z"/>
<path d="M6995 6758 c-3 -7 -4 -168 -3 -358 l3 -345 169 -3 c196 -3 248 7 313
63 34 29 44 45 53 90 19 93 -17 175 -91 205 -16 7 -29 16 -29 19 0 4 20 21 45
39 53 37 65 63 65 137 0 47 -4 59 -31 90 -58 66 -72 69 -291 73 -159 3 -199 1
-203 -10z m322 -144 c20 -20 24 -31 19 -57 -9 -48 -39 -67 -102 -67 l-54 0 0
75 0 75 55 0 c47 0 60 -4 82 -26z m-2 -269 c19 -18 25 -35 25 -68 0 -68 -23
-89 -99 -95 l-61 -4 0 96 0 96 55 0 c46 0 60 -4 80 -25z"/>
<path d="M8242 6413 l3 -358 90 0 90 0 3 148 3 148 31 -3 c31 -3 32 -4 79
-148 l47 -145 91 -3 c50 -1 91 1 91 6 0 4 -27 80 -60 167 -33 87 -60 160 -60
162 0 1 14 10 30 18 17 9 44 34 60 57 25 34 30 51 30 99 0 73 -10 98 -56 143
-56 55 -108 66 -306 66 l-168 0 2 -357z m314 203 c22 -18 28 -32 27 -59 -1
-20 -4 -41 -8 -47 -11 -19 -71 -40 -110 -40 l-35 0 0 85 0 85 49 0 c38 0 56
-6 77 -24z"/>
<path d="M8937 6538 c-31 -128 -61 -253 -67 -278 -5 -25 -19 -76 -30 -115 -11
-38 -20 -76 -20 -82 0 -14 126 -19 146 -5 6 4 18 36 25 72 l14 65 82 3 c92 3
95 1 107 -73 14 -79 8 -75 105 -75 48 0 90 2 93 5 5 5 -48 262 -75 370 -9 33
-26 107 -37 165 -12 58 -26 122 -31 143 l-10 37 -122 0 -123 0 -57 -232z m191
-67 c32 -157 33 -151 -34 -151 l-57 0 7 39 c12 77 48 221 55 221 4 0 17 -49
29 -109z"/>
<path d="M9400 6705 l0 -65 85 0 85 0 0 -295 0 -296 90 3 91 3 2 290 2 290 80
3 c44 2 82 7 85 11 3 5 3 34 2 65 l-4 56 -259 0 -259 0 0 -65z"/>
<path d="M10630 6763 c-1 -5 -1 -165 -1 -358 l0 -350 88 0 88 0 3 148 3 147
34 0 c23 0 35 -5 39 -17 2 -10 23 -78 46 -150 l41 -133 89 0 c50 0 90 3 90 8
0 9 -74 216 -94 264 -20 46 -20 78 -2 78 23 0 84 76 96 118 16 62 -4 138 -49
183 -56 56 -113 69 -308 69 -90 0 -163 -3 -163 -7z m293 -134 c48 -22 60 -83
25 -124 -18 -20 -35 -27 -80 -32 l-58 -6 0 87 0 86 45 0 c24 0 55 -5 68 -11z"/>
<path d="M11200 6759 c0 -6 40 -104 90 -218 l89 -208 3 -139 3 -139 90 0 90 0
5 155 5 155 97 197 c53 108 94 199 90 202 -3 3 -40 6 -83 6 l-77 0 -11 -32
c-23 -69 -96 -238 -103 -238 -4 0 -10 10 -13 23 -4 12 -25 73 -47 135 l-41
112 -93 0 c-61 0 -94 -4 -94 -11z"/>
<path d="M3958 6326 c-5 -91 -12 -86 122 -86 85 0 119 3 122 13 4 10 3 92 -1
120 -1 4 -55 7 -120 7 l-119 0 -4 -54z"/>
<path d="M12453 6220 c2 -8 12 -59 22 -113 10 -54 20 -96 23 -93 6 7 -28 187
-40 206 -8 13 -9 13 -5 0z"/>
</g>
</svg>
